ffmpeg version 7.1.3-0+deb13u1 Copyright (c) 2000-2025 the FFmpeg developers
  built with gcc 14 (Debian 14.2.0-19)
  configuration: --prefix=/usr --extra-version=0+deb13u1 --toolchain=hardened --libdir=/usr/lib/x86_64-linux-gnu --incdir=/usr/include/x86_64-linux-gnu --arch=amd64 --enable-gpl --disable-stripping --disable-libmfx --disable-omx --enable-gnutls --enable-libaom --enable-libass --enable-libbs2b --enable-libcdio --enable-libcodec2 --enable-libdav1d --enable-libflite --enable-libfontconfig --enable-libfreetype --enable-libfribidi --enable-libglslang --enable-libgme --enable-libgsm --enable-libharfbuzz --enable-libmp3lame --enable-libmysofa --enable-libopenjpeg --enable-libopenmpt --enable-libopus --enable-librubberband --enable-libshine --enable-libsnappy --enable-libsoxr --enable-libspeex --enable-libtheora --enable-libtwolame --enable-libvidstab --enable-libvorbis --enable-libvpx --enable-libwebp --enable-libx265 --enable-libxml2 --enable-libxvid --enable-libzimg --enable-openal --enable-opencl --enable-opengl --disable-sndio --enable-libvpl --enable-libdc1394 --enable-libdrm --enable-libiec61883 --enable-chromaprint --enable-frei0r --enable-ladspa --enable-libbluray --enable-libcaca --enable-libdvdnav --enable-libdvdread --enable-libjack --enable-libpulse --enable-librabbitmq --enable-librist --enable-libsrt --enable-libssh --enable-libsvtav1 --enable-libx264 --enable-libzmq --enable-libzvbi --enable-lv2 --enable-sdl2 --enable-libplacebo --enable-librav1e --enable-pocketsphinx --enable-librsvg --enable-libjxl --enable-shared
  libavutil      59. 39.100 / 59. 39.100
  libavcodec     61. 19.101 / 61. 19.101
  libavformat    61.  7.100 / 61.  7.100
  libavdevice    61.  3.100 / 61.  3.100
  libavfilter    10.  4.100 / 10.  4.100
  libswscale      8.  3.100 /  8.  3.100
  libswresample   5.  3.100 /  5.  3.100
  libpostproc    58.  3.100 / 58.  3.100
-vsync is deprecated. Use -fps_mode
Passing a number to -vsync is deprecated, use a string argument as described in the manual.
Input #0, mov,mp4,m4a,3gp,3g2,mj2, from '/mnt/data/apple_lego_demo/lego_promotions_realistic.mp4':
  Metadata:
    major_brand     : isom
    minor_version   : 512
    compatible_brands: isomiso2avc1mp41
    encoder         : Lavf61.7.100
  Duration: 00:00:06.00, start: 0.000000, bitrate: 497 kb/s
  Stream #0:0[0x1](und): Video: h264 (High) (avc1 / 0x31637661), yuv420p(progressive), 1280x720, 494 kb/s, 30 fps, 30 tbr, 15360 tbn (default)
      Metadata:
        handler_name    : VideoHandler
        vendor_id       : [0][0][0][0]
        encoder         : Lavc61.19.101 libx264
Stream mapping:
  Stream #0:0 -> #0:0 (h264 (native) -> webp (libwebp))
Press [q] to stop, [?] for help
Output #0, image2, to '/mnt/data/apple_lego_demo/frames/frame_%04d.webp':
  Metadata:
    major_brand     : isom
    minor_version   : 512
    compatible_brands: isomiso2avc1mp41
    encoder         : Lavf61.7.100
  Stream #0:0(und): Video: webp, yuv420p(tv, progressive), 1280x720, q=2-31, 200 kb/s, 30 fps, 30 tbn (default)
      Metadata:
        handler_name    : VideoHandler
        vendor_id       : [0][0][0][0]
        encoder         : Lavc61.19.101 libwebp
frame=    3 fps=0.0 q=-0.0 size=N/A time=00:00:00.10 bitrate=N/A speed= 0.2x    frame=    8 fps=8.0 q=-0.0 size=N/A time=00:00:00.26 bitrate=N/A speed=0.266x    frame=   13 fps=8.7 q=-0.0 size=N/A time=00:00:00.43 bitrate=N/A speed=0.288x    frame=   18 fps=9.0 q=-0.0 size=N/A time=00:00:00.60 bitrate=N/A speed= 0.3x    frame=   23 fps=9.2 q=-0.0 size=N/A time=00:00:00.76 bitrate=N/A speed=0.306x    frame=   28 fps=9.3 q=-0.0 size=N/A time=00:00:00.93 bitrate=N/A speed=0.311x    frame=   33 fps=9.4 q=-0.0 size=N/A time=00:00:01.10 bitrate=N/A speed=0.314x    frame=   37 fps=9.2 q=-0.0 size=N/A time=00:00:01.23 bitrate=N/A speed=0.308x    frame=   42 fps=9.3 q=-0.0 size=N/A time=00:00:01.40 bitrate=N/A speed=0.311x    frame=   47 fps=9.4 q=-0.0 size=N/A time=00:00:01.56 bitrate=N/A speed=0.313x    frame=   51 fps=9.3 q=-0.0 size=N/A time=00:00:01.70 bitrate=N/A speed=0.309x    frame=   56 fps=9.3 q=-0.0 size=N/A time=00:00:01.86 bitrate=N/A speed=0.311x    frame=   60 fps=9.2 q=-0.0 size=N/A time=00:00:02.00 bitrate=N/A speed=0.307x    frame=   64 fps=9.1 q=-0.0 size=N/A time=00:00:02.13 bitrate=N/A speed=0.304x    frame=   68 fps=9.1 q=-0.0 size=N/A time=00:00:02.26 bitrate=N/A speed=0.302x    frame=   72 fps=9.0 q=-0.0 size=N/A time=00:00:02.40 bitrate=N/A speed=0.299x    frame=   76 fps=8.9 q=-0.0 size=N/A time=00:00:02.53 bitrate=N/A speed=0.298x    frame=   80 fps=8.9 q=-0.0 size=N/A time=00:00:02.66 bitrate=N/A speed=0.296x    frame=   84 fps=8.8 q=-0.0 size=N/A time=00:00:02.80 bitrate=N/A speed=0.294x    frame=   88 fps=8.8 q=-0.0 size=N/A time=00:00:02.93 bitrate=N/A speed=0.293x    frame=   92 fps=8.7 q=-0.0 size=N/A time=00:00:03.06 bitrate=N/A speed=0.292x    frame=   95 fps=8.6 q=-0.0 size=N/A time=00:00:03.16 bitrate=N/A speed=0.287x    frame=   99 fps=8.6 q=-0.0 size=N/A time=00:00:03.30 bitrate=N/A speed=0.286x    frame=  103 fps=8.6 q=-0.0 size=N/A time=00:00:03.43 bitrate=N/A speed=0.286x    frame=  106 fps=8.5 q=-0.0 size=N/A time=00:00:03.53 bitrate=N/A speed=0.282x    frame=  110 fps=8.4 q=-0.0 size=N/A time=00:00:03.66 bitrate=N/A speed=0.282x    frame=  113 fps=8.4 q=-0.0 size=N/A time=00:00:03.76 bitrate=N/A speed=0.279x    frame=  117 fps=8.3 q=-0.0 size=N/A time=00:00:03.90 bitrate=N/A speed=0.278x    frame=  120 fps=8.3 q=-0.0 size=N/A time=00:00:04.00 bitrate=N/A speed=0.275x    frame=  124 fps=8.3 q=-0.0 size=N/A time=00:00:04.13 bitrate=N/A speed=0.275x    frame=  127 fps=8.2 q=-0.0 size=N/A time=00:00:04.23 bitrate=N/A speed=0.273x    frame=  131 fps=8.2 q=-0.0 size=N/A time=00:00:04.36 bitrate=N/A speed=0.272x    frame=  134 fps=8.1 q=-0.0 size=N/A time=00:00:04.46 bitrate=N/A speed=0.27x    frame=  138 fps=8.1 q=-0.0 size=N/A time=00:00:04.60 bitrate=N/A speed=0.27x    frame=  142 fps=8.1 q=-0.0 size=N/A time=00:00:04.73 bitrate=N/A speed=0.27x    frame=  145 fps=8.0 q=-0.0 size=N/A time=00:00:04.83 bitrate=N/A speed=0.268x    frame=  149 fps=8.0 q=-0.0 size=N/A time=00:00:04.96 bitrate=N/A speed=0.268x    frame=  152 fps=8.0 q=-0.0 size=N/A time=00:00:05.06 bitrate=N/A speed=0.266x    frame=  156 fps=8.0 q=-0.0 size=N/A time=00:00:05.20 bitrate=N/A speed=0.266x    frame=  159 fps=7.9 q=-0.0 size=N/A time=00:00:05.30 bitrate=N/A speed=0.265x    frame=  163 fps=7.9 q=-0.0 size=N/A time=00:00:05.43 bitrate=N/A speed=0.265x    frame=  167 fps=7.9 q=-0.0 size=N/A time=00:00:05.56 bitrate=N/A speed=0.265x    frame=  170 fps=7.9 q=-0.0 size=N/A time=00:00:05.66 bitrate=N/A speed=0.263x    frame=  174 fps=7.9 q=-0.0 size=N/A time=00:00:05.80 bitrate=N/A speed=0.263x    frame=  178 fps=7.9 q=-0.0 size=N/A time=00:00:05.93 bitrate=N/A speed=0.263x    [out#0/image2 @ 0x5622589e25c0] video:6663KiB audio:0KiB subtitle:0KiB other streams:0KiB global headers:0KiB muxing overhead: unknown
frame=  180 fps=7.9 q=-0.0 Lsize=N/A time=00:00:06.00 bitrate=N/A speed=0.263x    
